<svg width="86" height="98" viewBox="0 0 86 98" fill="none" xmlns="http://www.w3.org/2000/svg">
<path d="M46.0001 87.1394C52.3687 87.1394 52.3687 87.1394 52.3687 87.1394H46.0001ZM65.1931 84.0552C71.5617 84.0552 71.5617 84.0552 71.5617 84.0552H65.1931ZM52.4123 68.7647C58.7809 68.7647 58.7809 68.7647 58.7809 68.7647H52.4123ZM26.807 67.3747C33.1756 67.3747 33.1756 67.3747 33.1756 67.3747H26.807ZM39.6315 75.1502C46.0001 75.1502 46.0001 75.1502 46.0001 75.1502H39.6315ZM26.807 84.0552C33.1756 84.0552 33.1756 84.0552 33.1756 84.0552H26.807ZM26.807 1C36.4036 1 36.4036 1 36.4036 1C36.4036 34.3176 36.4036 34.3176 36.4036 34.3176C36.4036 35.4905 36.0982 36.6199 35.4875 37.6624C7.04696 87.1394 7.04696 87.1394 7.04696 87.1394C4.47335 91.3964 7.5704 96.8262 12.5431 96.8262C79.5442 96.8262 79.5442 96.8262 79.5442 96.8262C84.517 96.8262 87.5704 91.4398 84.9968 87.1828C56.5562 37.7059 56.5562 37.7059 56.5562 37.7059C55.9455 36.7068 55.5966 35.5339 55.5966 34.3611C55.5966 1.04344 55.5966 1.04344 55.5966 1.04344C65.1931 1.04344 65.1931 1.04344 65.1931 1.04344L55.5966 1.03258L46.0001 1.02172L36.4036 1.01086L26.807 1ZM66.6762 55.2986C66.6762 55.2986 59.7841 52.1276 52.8921 52.1276C46.0001 52.1276 46.0001 58.5131 39.108 58.5131C32.216 58.5131 25.3676 55.3421 25.3676 55.3421" fill="#98D8C5"/>
<path d="M61.6762 55.2986C61.6762 55.2986 54.7841 52.1276 47.8921 52.1276C41.0001 52.1276 41.0001 58.5131 34.108 58.5131C27.216 58.5131 20.3676 55.3421 20.3676 55.3421M41.0001 87.1394C47.3687 87.1394 47.3687 87.1394 47.3687 87.1394H41.0001ZM60.1931 84.0552C66.5617 84.0552 66.5617 84.0552 66.5617 84.0552H60.1931ZM47.4123 68.7647C53.7809 68.7647 53.7809 68.7647 53.7809 68.7647H47.4123ZM21.807 67.3747C28.1756 67.3747 28.1756 67.3747 28.1756 67.3747H21.807ZM34.6315 75.1502C41.0001 75.1502 41.0001 75.1502 41.0001 75.1502H34.6315ZM21.807 84.0552C28.1756 84.0552 28.1756 84.0552 28.1756 84.0552H21.807ZM21.807 1C31.4036 1 31.4036 1 31.4036 1C31.4036 34.3176 31.4036 34.3176 31.4036 34.3176C31.4036 35.4905 31.0982 36.6199 30.4875 37.6624C2.04696 87.1394 2.04696 87.1394 2.04696 87.1394C-0.526655 91.3964 2.5704 96.8262 7.54314 96.8262C74.5442 96.8262 74.5442 96.8262 74.5442 96.8262C79.517 96.8262 82.5704 91.4398 79.9968 87.1828C51.5562 37.7059 51.5562 37.7059 51.5562 37.7059C50.9455 36.7068 50.5966 35.5339 50.5966 34.3611C50.5966 1.04344 50.5966 1.04344 50.5966 1.04344C60.1931 1.04344 60.1931 1.04344 60.1931 1.04344L50.5966 1.03258L41.0001 1.02172L31.4036 1.01086L21.807 1Z" stroke="#253D75" stroke-miterlimit="8"/>
</svg>
