<svg width="121" height="126" viewBox="0 0 121 126" fill="none" xmlns="http://www.w3.org/2000/svg">
<path d="M113.467 77.5846C102.922 100.182 96.1427 122.026 63.753 125.793C36.2965 125.793 23.0776 96.4158 14.0386 77.5846C14.0386 46.384 36.2965 21.0909 63.753 21.0909C91.2095 21.0909 113.467 46.384 113.467 77.5846Z" fill="#FACB94"/>
<path fill-rule="evenodd" clip-rule="evenodd" d="M119.506 54.2339C116.025 24.2129 92.0014 1.0598 62.9996 1.0598C33.9978 1.0598 9.97459 24.2129 6.49281 54.2339H5.42639C8.91541 23.6741 33.3614 0 62.9996 0C92.6378 0 117.084 23.6741 120.573 54.2339H119.506Z" fill="#FACB94"/>
<rect x="5" y="48.2079" width="16.5715" height="34.6494" rx="8.28574" fill="#FACB94"/>
<rect x="104.429" y="48.2079" width="16.5715" height="34.6494" rx="8.28574" fill="#FACB94"/>
<circle cx="41.1559" cy="55.7404" r="1.5065" fill="#FACB94"/>
<circle cx="84.8448" cy="55.7404" r="1.5065" fill="#FACB94"/>
<path d="M47.544 94.9094C46.5833 94.9094 45.866 95.8002 46.1896 96.7048C48.625 103.512 56.097 108.468 64.937 108.468C73.7769 108.468 81.249 103.512 83.6843 96.7048C84.0079 95.8002 83.2906 94.9094 82.3299 94.9094H47.544Z" fill="#FACB94"/>
<path d="M107.937 77.4673C106.978 79.5253 106.051 81.5724 105.135 83.5965C101.015 92.6952 97.1047 101.33 91.3893 108.418C84.4207 117.059 74.7634 123.391 58.7224 125.263C45.228 125.252 35.2048 118.037 27.4007 108.416C20.0431 99.3459 14.7058 88.1955 10.3291 79.0518C10.0724 78.5155 9.81893 77.986 9.56859 77.4643C9.62569 46.5463 31.6859 21.6208 58.753 21.6208C85.821 21.6208 107.882 46.5479 107.937 77.4673Z" stroke="#253D75" stroke-width="1.0598"/>
<mask id="path-9-inside-1" fill="white">
<path fill-rule="evenodd" clip-rule="evenodd" d="M114.506 54.2339C111.025 24.2129 87.0014 1.0598 57.9996 1.0598C28.9978 1.0598 4.97459 24.2129 1.49281 54.2339H0.426392C3.91541 23.6741 28.3614 0 57.9996 0C87.6378 0 112.084 23.6741 115.573 54.2339H114.506Z"/>
</mask>
<path fill-rule="evenodd" clip-rule="evenodd" d="M114.506 54.2339C111.025 24.2129 87.0014 1.0598 57.9996 1.0598C28.9978 1.0598 4.97459 24.2129 1.49281 54.2339H0.426392C3.91541 23.6741 28.3614 0 57.9996 0C87.6378 0 112.084 23.6741 115.573 54.2339H114.506Z" fill="#C4C4C4"/>
<path d="M114.506 54.2339L113.454 54.356L113.562 55.2937H114.506V54.2339ZM1.49281 54.2339V55.2937H2.4368L2.54555 54.356L1.49281 54.2339ZM0.426392 54.2339L-0.626566 54.1137L-0.761289 55.2937H0.426392V54.2339ZM115.573 54.2339V55.2937H116.76L116.626 54.1137L115.573 54.2339ZM115.559 54.1118C112.022 23.6155 87.597 -9.53674e-07 57.9996 -9.53674e-07V2.1196C86.4058 2.1196 110.027 24.8103 113.454 54.356L115.559 54.1118ZM57.9996 -9.53674e-07C28.4022 -9.53674e-07 3.97698 23.6155 0.440067 54.1118L2.54555 54.356C5.97221 24.8103 29.5934 2.1196 57.9996 2.1196V-9.53674e-07ZM0.426392 55.2937H1.49281V53.1741H0.426392V55.2937ZM57.9996 -1.0598C27.7647 -1.0598 2.91676 23.0782 -0.626566 54.1137L1.47935 54.3541C4.91405 24.27 28.9581 1.0598 57.9996 1.0598V-1.0598ZM116.626 54.1137C113.082 23.0782 88.2345 -1.0598 57.9996 -1.0598V1.0598C87.0411 1.0598 111.085 24.27 114.52 54.3541L116.626 54.1137ZM114.506 55.2937H115.573V53.1741H114.506V55.2937Z" fill="#253D75" mask="url(#path-9-inside-1)"/>
<rect x="0.529899" y="48.7378" width="15.5117" height="33.5896" rx="7.75584" fill="white" stroke="#253D75" stroke-width="1.0598"/>
<rect x="99.9585" y="48.7378" width="15.5117" height="33.5896" rx="7.75584" fill="white" stroke="#253D75" stroke-width="1.0598"/>
<circle cx="36.1559" cy="55.7404" r="1.5065" fill="#253D75"/>
<circle cx="79.8448" cy="55.7404" r="1.5065" fill="#253D75"/>
<path d="M58.0004 66.2859V76.8314C58.0004 79.3274 60.0238 81.3509 62.5199 81.3509H65.5329" stroke="#253D75" stroke-width="1.0598" stroke-linecap="round" stroke-linejoin="round"/>
<path d="M41.6886 96.5263C41.5061 96.0161 41.8959 95.4393 42.544 95.4393H77.3299C77.9781 95.4393 78.3679 96.0161 78.1854 96.5263C75.8384 103.087 68.5941 107.938 59.937 107.938C51.2798 107.938 44.0356 103.087 41.6886 96.5263Z" stroke="#253D75" stroke-width="1.0598" stroke-linecap="round"/>
</svg>
