<svg width="115" height="95" viewBox="0 0 115 95" fill="none" xmlns="http://www.w3.org/2000/svg">
<path d="M15 3.18098C15 3.18098 44.9765 -2.60936 61.0353 11.4528C79.2353 -2.60934 106 3.18098 106 3.18098V90.0368C69.6 95.8272 74.4176 78.4682 61.0353 95C46.5824 80.1226 51.4 92.1169 15 90.0368V3.18098Z" fill="#D2C1EA"/>
<path d="M100.5 14H110V93H1V14H10.5" stroke="#253D75"/>
<path d="M55.7059 9.82892L56.0154 10.1L56.341 9.84842C65.3234 2.90822 76.4438 0.851733 85.3599 0.543281C89.8127 0.389237 93.7015 0.671709 96.4762 0.992648C97.8632 1.15308 98.9709 1.32301 99.7304 1.45252C100.051 1.50713 100.309 1.55454 100.5 1.59102V87.6093C91.6573 88.9845 85.3056 88.9739 80.5564 88.4335C76.1854 87.9362 73.1596 86.9896 70.7587 86.2385C70.5106 86.1609 70.2691 86.0854 70.0335 86.0126C67.5331 85.2406 65.5844 84.7401 63.4046 85.5992C61.3464 86.4104 59.1525 88.4061 56.0017 92.2496C52.6013 88.7806 50.2343 86.7922 48.0746 85.7873C45.7905 84.7245 43.7807 84.7801 41.1637 85.2265C40.3492 85.3655 39.4686 85.5437 38.4922 85.7413C33.3234 86.7874 25.4682 88.3773 10.5 87.5639V1.5992C10.717 1.5618 11.018 1.51186 11.3954 1.45383C12.2395 1.32403 13.4653 1.15384 14.9872 0.993194C18.0319 0.671819 22.257 0.389146 26.9793 0.543306C36.4459 0.852347 47.8092 2.91407 55.7059 9.82892Z" stroke="#253D75"/>
<line x1="23" y1="25.5" x2="44" y2="25.5" stroke="#253D75"/>
<line x1="23" y1="38.5" x2="44" y2="38.5" stroke="#253D75"/>
<line x1="23" y1="52.5" x2="44" y2="52.5" stroke="#253D75"/>
<line x1="69" y1="25.5" x2="90" y2="25.5" stroke="#253D75"/>
<line x1="69" y1="38.5" x2="90" y2="38.5" stroke="#253D75"/>
<line x1="69" y1="52.5" x2="90" y2="52.5" stroke="#253D75"/>
</svg>
