<svg width="31" height="30" viewBox="0 0 31 30" fill="none" xmlns="http://www.w3.org/2000/svg">
<path d="M6.9046 5.93248C6.99408 5.93148 7.0661 5.85824 7.06609 5.76825V4.79562C7.06609 4.70562 7.1381 4.63239 7.22758 4.63139H11.1052C11.1947 4.63039 11.2667 4.55715 11.2667 4.46715V4.29744C11.2667 4.20745 11.1947 4.13421 11.1052 4.13321H9.32335C9.23457 4.13222 9.16284 4.06009 9.16186 3.9708V3.4854C9.16185 3.3954 9.23387 3.32217 9.32335 3.32117H11.9798C12.0693 3.32217 12.1413 3.3954 12.1413 3.4854V5.28832C12.1413 5.37832 12.0693 5.45156 11.9798 5.45255H10.1979C10.1085 5.45355 10.0365 5.52679 10.0365 5.61679V7.07664C10.0365 7.16664 10.1085 7.23988 10.1979 7.24088H12.6693C12.7588 7.24188 12.8308 7.31511 12.8308 7.40511V7.89599C12.8308 7.98598 12.7588 8.05922 12.6693 8.06022H8.63565C8.54617 8.05922 8.47415 7.98598 8.47416 7.89599V7.40876C8.47415 7.31876 8.54617 7.24553 8.63565 7.24453H8.99855C9.08803 7.24353 9.16005 7.17029 9.16005 7.08029V5.62044C9.16005 5.53044 9.08803 5.4572 8.99855 5.4562H8.104C8.01451 5.4572 7.9425 5.53044 7.9425 5.62044V6.58759C7.94152 6.67688 7.86979 6.74901 7.78101 6.75H5.13726C5.04848 6.74901 4.97675 6.67688 4.97577 6.58759V6.09489C4.97576 6.0049 5.04778 5.93166 5.13726 5.93066L6.9046 5.93248Z" fill="white"/>
<path d="M17.3435 7.02744C17.3435 7.11743 17.4155 7.19067 17.505 7.19167H21.2084C21.2979 7.19067 21.3699 7.11743 21.3699 7.02744V6.85773C21.3699 6.76773 21.2979 6.69449 21.2084 6.69349H20.1415C20.0523 6.69349 19.98 6.62078 19.98 6.53109V6.04021C19.98 5.95021 20.052 5.87698 20.1415 5.87598H22.0812C22.1707 5.87698 22.2427 5.95021 22.2427 6.04021V7.84313C22.2427 7.93313 22.1707 8.00636 22.0812 8.00736H20.312C20.2226 8.00836 20.1506 8.0816 20.1506 8.1716V8.32671C20.1506 8.4167 20.2226 8.48994 20.312 8.49094H23.4711C23.5606 8.49194 23.6326 8.56518 23.6326 8.65517V10.9544C23.6326 11.0444 23.7046 11.1177 23.7941 11.1187H25.2185C25.3073 11.1197 25.379 11.1918 25.38 11.2811V11.7574C25.38 11.8474 25.308 11.9206 25.2185 11.9216H22.9395C22.85 11.9206 22.778 11.8474 22.778 11.7574V9.46904C22.778 9.37905 22.706 9.30581 22.6165 9.30481H19.4411C19.3516 9.30381 19.2796 9.23057 19.2796 9.14057V8.17525C19.2796 8.08525 19.2076 8.01201 19.1181 8.01101H18.9131C18.8236 8.01201 18.7516 8.08525 18.7516 8.17525V9.1424C18.7516 9.2324 18.6796 9.30563 18.5901 9.30663H18.0457C17.9562 9.30563 17.8842 9.2324 17.8842 9.1424V8.17525C17.8842 8.08525 17.8122 8.01201 17.7227 8.01101H16.6576C16.5681 8.01001 16.4961 7.93677 16.4961 7.84678V6.86138C16.4961 6.77138 16.4241 6.69814 16.3346 6.69714H16.1296C16.0401 6.69814 15.9681 6.77138 15.9681 6.86138V7.84678C15.9681 7.93677 15.8961 8.01001 15.8066 8.01101H14.2098C14.1203 8.01001 14.0483 7.93677 14.0483 7.84678V7.35408C14.0483 7.26408 14.1203 7.19084 14.2098 7.18984H14.9356C15.0251 7.18885 15.0971 7.11561 15.0971 7.02561V6.04021C15.0971 5.95021 15.1691 5.87698 15.2586 5.87598H17.1748C17.2642 5.87698 17.3362 5.95021 17.3362 6.04021L17.3435 7.02744Z" fill="white"/>
<path d="M15.2205 10.7062C15.1311 10.7072 15.059 10.7804 15.059 10.8704V11.2007C15.059 11.2904 14.9867 11.3631 14.8976 11.3631H12.9397C12.8505 11.3631 12.7782 11.2904 12.7782 11.2007V10.7098C12.7782 10.6199 12.8502 10.5466 12.9397 10.5456H14.0284C14.1179 10.5446 14.1899 10.4714 14.1899 10.3814V10.0529C14.1909 9.96363 14.2626 9.89149 14.3514 9.8905H15.9482C16.0369 9.89149 16.1087 9.96363 16.1097 10.0529V10.5438C16.1097 10.6338 16.0376 10.707 15.9482 10.708L15.2205 10.7062Z" fill="white"/>
<path d="M8.19292 2.84309C8.10343 2.84409 8.03142 2.91733 8.03142 3.00733V3.99273C8.03143 4.08272 7.95941 4.15596 7.86993 4.15696H7.31469C7.22521 4.15596 7.15319 4.08272 7.1532 3.99273V2.20258C7.15611 2.11473 7.22729 2.04475 7.31469 2.04382H10.3195C10.409 2.04482 10.481 2.11806 10.481 2.20806V2.68433C10.481 2.77433 10.409 2.84757 10.3195 2.84857L8.19292 2.84309Z" fill="white"/>
<path d="M15.6833 1.91611C15.6833 2.00611 15.7553 2.07935 15.8448 2.08035H16.9335C17.023 2.08135 17.095 2.15459 17.095 2.24458V2.72086C17.094 2.81014 17.0223 2.88228 16.9335 2.88327H14.9865C14.8978 2.88228 14.826 2.81014 14.825 2.72086V1.74823C14.8251 1.65824 14.753 1.585 14.6636 1.584H12.3646C12.2751 1.585 12.2031 1.65824 12.2031 1.74823V1.91794C12.2026 1.9615 12.2193 2.00346 12.2496 2.03461C12.2799 2.06575 12.3213 2.08352 12.3646 2.084H13.4315C13.521 2.085 13.593 2.15824 13.593 2.24823V3.21538C13.594 3.30467 13.6657 3.37681 13.7545 3.37779H17.2638C17.3532 3.37879 17.4253 3.45203 17.4252 3.54203V5.34495C17.4253 5.43494 17.3532 5.50818 17.2638 5.50918H16.7194C16.6299 5.50818 16.5579 5.43494 16.5579 5.34495V4.35954C16.5579 4.26955 16.4859 4.19631 16.3964 4.19531H12.8799C12.7904 4.19431 12.7184 4.12107 12.7184 4.03108V3.04568C12.7184 2.95568 12.6464 2.88244 12.5569 2.88144H11.4882C11.399 2.88144 11.3267 2.80873 11.3267 2.71903V0.930713C11.3267 0.840717 11.3987 0.767479 11.4882 0.766479H15.5218C15.6113 0.767479 15.6833 0.840717 15.6833 0.930713V1.91611Z" fill="white"/>
<path d="M22.9359 5.61131C22.9359 5.52132 22.8639 5.44808 22.7744 5.44708H19.0691C18.9797 5.44808 18.9076 5.52132 18.9077 5.61131V6.58576C18.9077 6.67576 18.8356 6.749 18.7462 6.75H18.2018C18.1123 6.749 18.0403 6.67576 18.0403 6.58576V4.79379C18.0403 4.7038 18.1123 4.63056 18.2018 4.62956H19.9855C20.0747 4.62956 20.147 4.55685 20.147 4.46715V4.29744C20.147 4.20775 20.0747 4.13503 19.9855 4.13503H18.5611C18.4716 4.13403 18.3996 4.0608 18.3996 3.9708V3.48358C18.3996 3.39388 18.4719 3.32117 18.5611 3.32117H20.8456C20.9347 3.32117 21.007 3.39388 21.007 3.48358V4.46898C21.008 4.55826 21.0798 4.6304 21.1685 4.63138H23.6399C23.7294 4.63238 23.8014 4.70562 23.8014 4.79562V5.92883C23.8004 6.01811 23.7287 6.09025 23.6399 6.09124H23.0956C23.0068 6.09025 22.935 6.01811 22.9341 5.92883L22.9359 5.61131Z" fill="white"/>
<path d="M24.3276 7.58771C24.3277 7.49771 24.2556 7.42448 24.1662 7.42348H23.101C23.0116 7.42248 22.9395 7.34924 22.9395 7.25924V6.77019C22.9395 6.6802 23.0116 6.60696 23.101 6.60596H25.0408C25.1302 6.60696 25.2022 6.6802 25.2022 6.77019V9.21545C25.2013 9.30473 25.1295 9.37687 25.0408 9.37786H24.4964C24.4076 9.37687 24.3359 9.30473 24.3349 9.21545L24.3276 7.58771Z" fill="white"/>
<path d="M28.0655 12.1715C28.0655 12.0815 27.9935 12.0083 27.904 12.0073H26.8153C26.7258 12.0063 26.6538 11.9331 26.6538 11.8431V10.8723C26.6538 10.7823 26.5818 10.709 26.4923 10.708H24.3712C24.2824 10.707 24.2107 10.6349 24.2097 10.5456V10.0547C24.2097 9.96474 24.2817 9.8915 24.3712 9.8905H27.3778C27.4673 9.8915 27.5393 9.96474 27.5393 10.0547V11.0401C27.5393 11.1301 27.6113 11.2034 27.7008 11.2044H28.7659C28.8547 11.2054 28.9264 11.2775 28.9274 11.3668V13.1569C28.9274 13.2469 28.8554 13.3202 28.7659 13.3212H28.2216C28.1321 13.3202 28.0601 13.2469 28.0601 13.1569L28.0655 12.1715Z" fill="white"/>
<path d="M26.3272 13.6187C26.2377 13.6197 26.1657 13.6929 26.1657 13.7829V14.4344C26.1657 14.5244 26.0937 14.5976 26.0042 14.5986H25.4598C25.3703 14.5976 25.2983 14.5244 25.2983 14.4344V12.9745C25.2983 12.8845 25.3703 12.8113 25.4598 12.8103H27.4159C27.5054 12.8113 27.5774 12.8845 27.5774 12.9745V13.4654C27.5774 13.5554 27.5054 13.6286 27.4159 13.6296L26.3272 13.6187Z" fill="white"/>
<path d="M14.7996 5.41798C14.7102 5.41898 14.6381 5.49221 14.6382 5.58221V6.55484C14.6382 6.64453 14.5658 6.71725 14.4767 6.71725H11.4882C11.3994 6.71626 11.3276 6.64412 11.3267 6.55484V6.06214C11.3267 5.97214 11.3987 5.8989 11.4882 5.8979H13.6148C13.7042 5.8969 13.7763 5.82367 13.7763 5.73367V5.57856C13.7763 5.48856 13.7042 5.41533 13.6148 5.41433H13.2373C13.1479 5.41333 13.0758 5.34009 13.0759 5.25009V4.76287C13.0758 4.67287 13.1479 4.59963 13.2373 4.59863H15.1771C15.2665 4.59963 15.3386 4.67287 15.3386 4.76287V5.25374C15.3386 5.34374 15.2665 5.41698 15.1771 5.41798H14.7996Z" fill="white"/>
<path d="M22.9032 14.6533C22.8137 14.6543 22.7417 14.7275 22.7417 14.8175V15.8029C22.7417 15.8929 22.6697 15.9662 22.5802 15.9672H22.0359C21.9464 15.9662 21.8744 15.8929 21.8744 15.8029V14.0128C21.8744 13.9228 21.9464 13.8496 22.0359 13.8486H23.805C23.8938 13.8476 23.9655 13.7754 23.9665 13.6862V13.5183C23.9655 13.429 23.8938 13.3568 23.805 13.3559H20.9834C20.894 13.3549 20.8219 13.2816 20.822 13.1916V10.907C20.822 10.817 20.7499 10.7437 20.6605 10.7427H20.4699C20.3805 10.7437 20.3084 10.817 20.3084 10.907V13.688C20.3075 13.7773 20.2357 13.8494 20.147 13.8504H18.1873C18.0985 13.8494 18.0268 13.7773 18.0258 13.688V11.5621C18.024 11.4756 17.9557 11.4053 17.8697 11.4015H16.8028C16.714 11.4005 16.6423 11.3284 16.6413 11.2391V9.59674C16.6413 9.50704 16.569 9.43433 16.4798 9.43433H12.9397C12.8502 9.43333 12.7782 9.36009 12.7782 9.27009V8.77739C12.7782 8.6874 12.8502 8.61416 12.9397 8.61316H17.3254C17.4149 8.61416 17.4869 8.6874 17.4869 8.77739V10.4197C17.4869 10.5097 17.5589 10.583 17.6484 10.584H18.7371C18.8266 10.585 18.8986 10.6582 18.8986 10.7482V12.7847C18.8995 12.874 18.9713 12.9461 19.0601 12.9471H19.2669C19.3097 12.9471 19.3508 12.93 19.3811 12.8995C19.4114 12.8691 19.4284 12.8278 19.4284 12.7847V10.0894C19.4294 10.0002 19.5011 9.92801 19.5899 9.92703H22.2336C22.3228 9.92703 22.3951 9.99974 22.3951 10.0894V10.5803C22.3951 10.6703 22.3231 10.7435 22.2336 10.7445H21.8617C21.7722 10.7455 21.7002 10.8188 21.7002 10.9088V12.3686C21.7002 12.4586 21.7722 12.5319 21.8617 12.5329H24.6905C24.7797 12.5329 24.852 12.6056 24.852 12.6953V14.4854C24.852 14.5754 24.78 14.6487 24.6905 14.6497L22.9032 14.6533Z" fill="white"/>
<path d="M25.9244 16.3869C25.835 16.3879 25.7629 16.4612 25.7629 16.5512V18.5147C25.763 18.6047 25.6909 18.6779 25.6015 18.6789H25.0571C24.9676 18.6779 24.8956 18.6047 24.8956 18.5147V16.5566C24.8956 16.4666 24.8236 16.3934 24.7341 16.3924H23.6454C23.5559 16.3914 23.4839 16.3182 23.4839 16.2282V15.7336C23.4839 15.6436 23.5559 15.5704 23.6454 15.5694H26.819C26.9082 15.5694 26.9805 15.4967 26.9805 15.407V14.4344C26.9805 14.3444 27.0525 14.2711 27.142 14.2701H27.6863C27.7758 14.2711 27.8478 14.3444 27.8478 14.4344V16.2245C27.8478 16.3145 27.7758 16.3878 27.6863 16.3888L25.9244 16.3869Z" fill="white"/>
<path d="M27.4323 17.677C27.3428 17.678 27.2708 17.7513 27.2708 17.8413V17.9946C27.2708 18.0846 27.3428 18.1578 27.4323 18.1588H29.9037C29.9925 18.1598 30.0642 18.2319 30.0652 18.3212V20.1259C30.0652 20.2159 29.9932 20.2892 29.9037 20.2902H28.3069C28.2174 20.2892 28.1454 20.2159 28.1454 20.1259V19.6369C28.1454 19.5469 28.2174 19.4737 28.3069 19.4727H29.0327C29.1215 19.4717 29.1932 19.3995 29.1942 19.3103V19.1405C29.1942 19.0506 29.1222 18.9773 29.0327 18.9763H27.436C27.3465 18.9773 27.2745 19.0506 27.2745 19.1405V20.1259C27.2745 20.2159 27.2025 20.2892 27.113 20.2902H26.0243C25.9351 20.2902 25.8628 20.3629 25.8628 20.4526V20.6223C25.8628 20.7123 25.9348 20.7855 26.0243 20.7865H29.1978C29.2873 20.7875 29.3593 20.8608 29.3593 20.9508V21.427C29.3593 21.517 29.2873 21.5903 29.1978 21.5913H25.1678C25.0783 21.5903 25.0063 21.517 25.0063 21.427V20.4544C25.0053 20.3651 24.9336 20.293 24.8448 20.292H23.7561C23.6666 20.291 23.5946 20.2178 23.5946 20.1278V19.1424C23.5946 19.0524 23.5226 18.9791 23.4331 18.9781H21.468C21.3785 18.9771 21.3065 18.9039 21.3065 18.8139V17.0238C21.3065 16.9341 21.3788 16.8614 21.468 16.8614H23.6091C23.6979 16.8623 23.7696 16.9345 23.7706 17.0238V17.5146C23.7706 17.6046 23.6986 17.6779 23.6091 17.6789H22.3517C22.2622 17.6799 22.1902 17.7531 22.1902 17.8431V17.9946C22.1902 18.0846 22.2622 18.1578 22.3517 18.1588H24.3114C24.4001 18.1598 24.4719 18.2319 24.4728 18.3212V19.3084C24.4728 19.3981 24.5451 19.4708 24.6343 19.4708H26.2311C26.3199 19.4699 26.3916 19.3977 26.3926 19.3084V17.0238C26.3926 16.9341 26.4649 16.8614 26.5541 16.8614H28.3378C28.4272 16.8604 28.4993 16.7871 28.4993 16.6971V15.7117C28.4993 15.6217 28.5713 15.5485 28.6607 15.5475H29.2051C29.2946 15.5485 29.3666 15.6217 29.3666 15.7117V17.5146C29.3666 17.6046 29.2946 17.6779 29.2051 17.6789L27.4323 17.677Z" fill="white"/>
<path d="M3.27566 8.15333C3.18618 8.15433 3.11416 8.22757 3.11417 8.31757V8.47268C3.11416 8.56267 3.18618 8.63591 3.27566 8.63691H5.05933C5.14881 8.63791 5.22083 8.71115 5.22082 8.80114V9.78107C5.22082 9.87107 5.29283 9.9443 5.38231 9.9453H6.97909C7.06857 9.9443 7.14059 9.87107 7.14058 9.78107V7.50005C7.14056 7.41075 7.21149 7.3378 7.30026 7.33582H7.84461C7.9338 7.33582 8.00611 7.40853 8.00611 7.49822V8.47085C8.0061 8.56085 8.07811 8.63409 8.1676 8.63509H10.6499C10.7393 8.63609 10.8114 8.70932 10.8113 8.79932V10.6022C10.8114 10.6922 10.7393 10.7655 10.6499 10.7665H9.39784C9.30836 10.7655 9.23634 10.6922 9.23635 10.6022V10.1114C9.23634 10.0214 9.30836 9.94813 9.39784 9.94713H9.77526C9.86474 9.94613 9.93676 9.87289 9.93675 9.7829V9.61319C9.93676 9.52319 9.86474 9.44995 9.77526 9.44895H8.17848C8.089 9.44995 8.01699 9.52319 8.01699 9.61319V10.5986C8.017 10.6886 7.94498 10.7618 7.8555 10.7628H5.38413C5.29465 10.7638 5.22263 10.8371 5.22264 10.9271V11.5785C5.22264 11.6685 5.15063 11.7418 5.06115 11.7428H4.51679C4.42731 11.7418 4.35529 11.6685 4.3553 11.5785V9.61501C4.3553 9.52502 4.28329 9.45178 4.19381 9.45078H2.41558C2.3261 9.44978 2.25408 9.37654 2.25409 9.28655V7.50005C2.25507 7.41077 2.3268 7.33863 2.41558 7.33764H6.44925C6.53844 7.33764 6.61074 7.41035 6.61074 7.50005V7.99092C6.61075 8.08092 6.53873 8.15416 6.44925 8.15516L3.27566 8.15333Z" fill="white"/>
<path d="M12.2013 11.719C12.2013 11.809 12.2733 11.8822 12.3627 11.8832H13.4279C13.5174 11.8842 13.5894 11.9575 13.5894 12.0475V12.5383C13.5894 12.6283 13.5174 12.7016 13.4279 12.7026H11.4882C11.3987 12.7016 11.3267 12.6283 11.3267 12.5383V8.77739C11.3267 8.6874 11.3987 8.61416 11.4882 8.61316H12.0325C12.122 8.61416 12.194 8.6874 12.194 8.77739L12.2013 11.719Z" fill="white"/>
<path d="M3.28292 10.7062C3.19344 10.7072 3.12142 10.7804 3.12143 10.8704V12.5C3.12143 12.59 3.04942 12.6632 2.95994 12.6642H2.41558C2.3261 12.6632 2.25408 12.59 2.25409 12.5V10.0529C2.25507 9.96363 2.3268 9.89149 2.41558 9.8905H3.65308C3.74186 9.89149 3.81359 9.96363 3.81458 10.0529V10.5438C3.81458 10.6338 3.74257 10.707 3.65308 10.708L3.28292 10.7062Z" fill="white"/>
<path d="M1.67703 12.9618C1.67702 13.0518 1.74904 13.125 1.83852 13.126H3.44255C3.53203 13.125 3.60405 13.0518 3.60404 12.9618V12.6315C3.60404 12.5415 3.67605 12.4682 3.76553 12.4672H6.22965C6.31884 12.4672 6.39114 12.3945 6.39114 12.3048V11.3322C6.39113 11.2422 6.46315 11.169 6.55263 11.168H10.6026C10.6921 11.169 10.7641 11.2422 10.7641 11.3322V12.9618C10.7641 13.0518 10.8361 13.125 10.9256 13.126H12.0143C12.1038 13.127 12.1758 13.2002 12.1758 13.2902V13.7811C12.1758 13.8711 12.1038 13.9443 12.0143 13.9453H10.0528C9.96335 13.9443 9.89133 13.8711 9.89134 13.7811V13.449C9.89135 13.359 9.81933 13.2858 9.72985 13.2848H8.66291C8.57413 13.2838 8.5024 13.2116 8.50142 13.1223V12.6315C8.50142 12.5415 8.57343 12.4682 8.66291 12.4672H9.72803C9.81681 12.4663 9.88855 12.3941 9.88953 12.3048V12.1351C9.88855 12.0458 9.81681 11.9737 9.72803 11.9727H7.43448C7.34571 11.9737 7.27397 12.0458 7.27299 12.1351V14.4216C7.273 14.5116 7.20098 14.5849 7.1115 14.5859H6.03912C5.94993 14.5859 5.87763 14.6586 5.87763 14.7483V15.7355C5.87764 15.8255 5.80562 15.8987 5.71614 15.8997H3.22844C3.13895 15.9007 3.06694 15.974 3.06695 16.064V16.3942C3.06695 16.4842 2.99494 16.5575 2.90545 16.5585H2.3611C2.27162 16.5575 2.1996 16.4842 2.19961 16.3942V14.5877C2.1996 14.4977 2.27162 14.4244 2.3611 14.4234H2.90545C2.99494 14.4244 3.06695 14.4977 3.06695 14.5877V14.918C3.06793 15.0073 3.13966 15.0794 3.22844 15.0804H4.83973C4.92851 15.0794 5.00024 15.0073 5.00122 14.918V13.9453C5.00121 13.8553 5.07323 13.7821 5.16271 13.7811H6.22965C6.31913 13.7801 6.39114 13.7069 6.39114 13.6169V13.449C6.39114 13.359 6.31913 13.2858 6.22965 13.2848H4.63287C4.54339 13.2858 4.47137 13.359 4.47138 13.449V13.7793C4.47139 13.8693 4.39937 13.9425 4.30989 13.9435H0.963921C0.874439 13.9425 0.802424 13.8693 0.802429 13.7793V11.3322C0.802424 11.2422 0.874439 11.169 0.963921 11.168H1.50828C1.59776 11.169 1.66977 11.2422 1.66977 11.3322L1.67703 12.9618Z" fill="white"/>
<path d="M17.3181 11.8978V12.5511C17.3172 12.6404 17.2454 12.7125 17.1567 12.7135H14.7542C14.665 12.7135 14.5927 12.6408 14.5927 12.5511V11.8978" fill="white"/>
<path d="M23.8599 20.8504C23.8599 20.7792 22.1815 20.5803 21.1236 20.2445C20.5345 20.0666 19.9635 19.8332 19.418 19.5474C19.1621 19.4124 19.3327 19.1277 19.4307 19.0237C19.7936 18.6332 20.6899 17.9836 20.6337 17.8996C20.5774 17.8157 19.5885 18.5821 18.85 19.0401C18.7263 19.1174 18.5753 19.1368 18.4363 19.0931C16.5383 18.5037 14.1123 17.8011 14.1123 16.7828C14.1123 15.7646 15.6383 15.562 17.8139 15.5967C18.5397 15.6077 19.926 15.177 20.4613 14.9252C20.4976 14.9088 20.4867 14.8467 20.4468 14.8595C19.6684 15.1058 18.4998 15.396 17.5581 15.2792C15.9395 15.0785 15.6474 14.958 15.1085 15.1095C15.025 15.1332 14.976 15.0456 15.016 14.9672C15.2518 14.5037 15.7545 14.031 16.8522 13.6204C16.8849 13.6077 16.8522 13.5639 16.8268 13.5693C15.8488 13.7336 14.7928 14.0146 14.2956 14.5274C14.2774 14.5423 14.2524 14.5459 14.2308 14.5368C14.2091 14.5276 14.1943 14.5071 14.1922 14.4836C14.125 13.7537 13.1724 13.4142 12.893 13.3577C12.8658 13.3577 12.8385 13.3796 12.8621 13.3942C13.2504 13.6332 13.9871 14.3504 13.548 15.0365C12.4103 16.8376 10.2819 17.1861 9.88995 18.761C9.55426 20.1168 12.8658 22.2628 12.8658 23.5183C12.8658 25.4161 9.05527 26.5493 9.05527 26.5493C8.99094 26.5797 8.95608 26.6509 8.97128 26.7207C8.98647 26.7906 9.04768 26.8406 9.11878 26.8412H21.1145C21.18 26.8461 21.2433 26.817 21.2827 26.7642C21.322 26.7114 21.3318 26.6421 21.3087 26.5803C20.4014 23.3358 14.0506 21.177 12.7406 19.9964C12.4121 19.6989 12.1527 19.3741 12.3377 18.969C12.9583 17.6131 19.0986 20.2774 21.5609 20.7153C22.0853 20.8084 23.8527 20.9106 23.8527 20.8412" fill="white"/>
<path d="M10.7986 16.7779C10.2543 16.214 9.03128 15.1574 8.6466 14.8271C8.64077 14.82 8.63157 14.8165 8.62248 14.818C8.61339 14.8195 8.60578 14.8257 8.60252 14.8344C8.59926 14.8431 8.60085 14.8528 8.60668 14.86C8.90789 15.3837 9.27442 16.0717 9.45406 16.3636C9.47053 16.3898 9.47101 16.423 9.4553 16.4496C9.43959 16.4761 9.41035 16.4916 9.37967 16.4895C8.8589 16.4603 7.68309 16.422 7.00265 16.402C6.98561 16.402 6.9718 16.4158 6.9718 16.433C6.9718 16.4501 6.98561 16.464 7.00265 16.464C8.08583 16.653 9.14559 16.9589 10.1635 17.3764C10.2188 17.4001 10.2823 17.3924 10.3305 17.3563C10.472 17.2487 10.6226 17.1428 10.7805 17.0352C10.82 17.0078 10.8458 16.9644 10.851 16.9164C10.8562 16.8684 10.8404 16.8205 10.8077 16.7852" fill="white"/>
<path d="M21.4928 29.3541C22.3311 29.3541 23.0279 28.6095 23.1259 27.6533C23.1331 27.5913 23.1137 27.5291 23.0724 27.4824C23.0312 27.4357 22.9721 27.4089 22.91 27.4088H7.55008C7.48864 27.4095 7.43033 27.4362 7.38955 27.4825C7.34877 27.5287 7.32931 27.5901 7.33597 27.6515C7.4394 28.6077 8.13436 29.3522 8.96903 29.3522L21.4928 29.3541Z" fill="white"/>
</svg>
