<svg width="197" height="90" viewBox="0 0 197 90" fill="none" xmlns="http://www.w3.org/2000/svg">
<rect x="15.7136" y="0.844788" width="101.361" height="78.473" fill="#FACB94"/>
<path d="M118.71 28.6373H143.232L166.12 51.5253H118.71V28.6373Z" fill="#FACB94"/>
<path d="M118.71 53.1602H187.374C190.985 53.1602 193.913 56.088 193.913 59.6996V79.3179H118.71V53.1602Z" fill="#FACB94"/>
<path d="M113.295 30.1087C113.295 30.1087 113.295 30.1087 137.328 30.1087L161.033 53.8141M113.295 80.7892C113.295 2.47964 113.295 2.47964 113.295 2.47964C12.0979 2.47964 12.0979 2.47964 12.0979 2.47964C12.0979 80.7892 12.0979 80.7892 12.0979 80.7892C35.6398 80.7892 35.6398 80.7892 35.6398 80.7892M35.6398 80.7892C35.6398 75.8846 39.4 72.7784 43.8141 72.7784C48.2282 72.7784 51.9884 76.0481 51.9884 80.7892M35.6398 80.7892C35.6398 85.0398 39.4 88.8 43.8141 88.8C48.2282 88.8 51.9884 85.0398 51.9884 80.7892M177.218 80.7892C177.218 75.8846 173.458 72.7784 169.044 72.7784C164.63 72.7784 160.87 76.0481 160.87 80.7892M177.218 80.7892C177.218 85.0398 173.458 88.8 169.044 88.8C164.793 88.8 160.87 85.0398 160.87 80.7892M177.218 80.7892H189.316M177.218 80.7892C182.567 80.7892 186.469 80.7892 189.316 80.7892M51.9884 80.7892C160.87 80.7892 160.87 80.7892 160.87 80.7892M51.9884 80.7892H160.87M113.132 53.8141C113.132 53.8141 113.132 53.8141 161.033 53.8141M161.033 53.8141C167.228 53.8141 174.223 53.8141 182.123 53.8141C186.046 53.8141 189.316 56.9203 189.316 60.6805V80.7892M189.316 80.7892H197C197 80.7892 197 80.7892 189.316 80.7892ZM12.0979 72.9419C0 72.9419 0 72.9419 0 72.9419H12.0979Z" stroke="#0078D4" stroke-width="1.63485" stroke-miterlimit="8"/>
</svg>
